<svg width="512" height="512" viewBox="0 0 512 512" fill="none" xmlns="http://www.w3.org/2000/svg">
<path fill-rule="evenodd" clip-rule="evenodd" d="M263.073 2.92894C259.168 -0.976307 252.836 -0.976315 248.931 2.92893L2.92894 248.931C-0.976307 252.836 -0.976315 259.168 2.92893 263.073L248.931 509.075C252.836 512.98 259.168 512.98 263.073 509.075L509.075 263.073C512.98 259.168 512.98 252.836 509.075 248.931L263.073 2.92894ZM263.071 133.003C259.166 129.098 252.834 129.098 248.929 133.003L132.998 248.934C129.093 252.839 129.093 259.17 132.998 263.076L248.929 379.006C252.834 382.911 259.166 382.911 263.071 379.006L379.001 263.076C382.906 259.17 382.906 252.839 379.001 248.934L263.071 133.003Z" fill="#F5A524"/>
<rect x="256.015" y="190.992" width="91.975" height="91.975" rx="10" transform="rotate(45 256.015 190.992)" fill="#2B85EC"/>
</svg>
