<svg width="513" height="513" viewBox="0 0 513 513" fill="none" xmlns="http://www.w3.org/2000/svg">
<path d="M0.358292 40.1071C0.358292 18.0316 18.2797 0.135796 40.3869 0.135796H472.33C494.437 0.135796 512.358 18.0316 512.358 40.1071V472.164C512.358 494.24 494.437 512.136 472.33 512.136H40.3869C18.2797 512.136 0.358292 494.24 0.358292 472.164V40.1071Z" fill="url(#paint0_linear_10_3)"/>
<path d="M412.288 412H512.358V482C512.358 498.569 498.927 512 482.358 512H412.288V412Z" fill="white" fill-opacity="0.2"/>
<path d="M412.288 312H512.358V412H412.288V312Z" fill="white" fill-opacity="0.4"/>
<path d="M312.218 412H412.288V512H312.218V412Z" fill="white" fill-opacity="0.4"/>
<path d="M312.218 312H412.288V412H312.218V312Z" fill="white" fill-opacity="0.6"/>
<path d="M212.148 412H312.218V512H212.148V412Z" fill="white" fill-opacity="0.6"/>
<path d="M412.288 212H512.358V312H412.288V212Z" fill="white" fill-opacity="0.6"/>
<defs>
<linearGradient id="paint0_linear_10_3" x1="-0.227004" y1="17.9148" x2="513.59" y2="511.221" gradientUnits="userSpaceOnUse">
<stop stop-color="#006EFF"/>
<stop offset="1" stop-color="#123E81"/>
</linearGradient>
</defs>
</svg>
