<svg width="513" height="513" viewBox="0 0 513 513" fill="none" xmlns="http://www.w3.org/2000/svg">
<path d="M0.358292 40.1071C0.358292 18.0316 18.2797 0.135796 40.3869 0.135796H472.33C494.437 0.135796 512.358 18.0316 512.358 40.1071V472.164C512.358 494.24 494.437 512.136 472.33 512.136H40.3869C18.2797 512.136 0.358292 494.24 0.358292 472.164V40.1071Z" fill="url(#paint0_linear_10_3)"/>
<path d="M412.288 412H512.358V482C512.358 498.569 498.927 512 482.358 512H412.288V412Z" fill="white" fill-opacity="0.2"/>
<path d="M412.288 312H512.358V412H412.288V312Z" fill="white" fill-opacity="0.4"/>
<path d="M312.218 412H412.288V512H312.218V412Z" fill="white" fill-opacity="0.4"/>
<path d="M312.218 312H412.288V412H312.218V312Z" fill="white" fill-opacity="0.6"/>
<path d="M212.148 412H312.218V512H212.148V412Z" fill="white" fill-opacity="0.6"/>
<path d="M412.288 212H512.358V312H412.288V212Z" fill="white" fill-opacity="0.6"/>
<path d="M247.726 101.64C247.726 107.528 249.049 112.691 251.694 117.128C254.425 121.48 257.966 124.851 262.318 127.24C266.67 129.544 271.406 130.696 276.526 130.696C280.793 130.696 284.59 130.142 287.918 129.032C291.246 127.923 294.233 126.43 296.878 124.552C299.609 122.675 301.955 120.627 303.918 118.408V139.016C300.249 141.918 296.238 144.179 291.886 145.8C287.619 147.422 282.201 148.232 275.63 148.232C268.803 148.232 262.446 147.123 256.558 144.904C250.755 142.686 245.678 139.486 241.326 135.304C237.059 131.123 233.731 126.216 231.342 120.584C229.038 114.867 227.886 108.552 227.886 101.64C227.886 94.7283 229.038 88.4563 231.342 82.8243C233.731 77.107 237.059 72.1577 241.326 67.9763C245.678 63.795 250.755 60.595 256.558 58.3763C262.446 56.1577 268.803 55.0483 275.63 55.0483C282.201 55.0483 287.619 55.859 291.886 57.4803C296.238 59.1017 300.249 61.363 303.918 64.2643V84.8723C301.955 82.6537 299.609 80.6057 296.878 78.7283C294.233 76.851 291.246 75.3577 287.918 74.2483C284.59 73.139 280.793 72.5843 276.526 72.5843C271.406 72.5843 266.67 73.779 262.318 76.1683C257.966 78.4723 254.425 81.8003 251.694 86.1523C249.049 90.5043 247.726 95.667 247.726 101.64Z" fill="white"/>
<path d="M163.939 116.36C165.816 119.688 167.864 122.59 170.083 125.064C172.387 127.539 174.904 129.459 177.635 130.824C180.366 132.19 183.31 132.872 186.467 132.872C190.136 132.872 193.123 131.934 195.427 130.056C197.731 128.179 198.883 125.619 198.883 122.376C198.883 119.56 198.158 117.299 196.707 115.592C195.342 113.886 193.251 112.392 190.435 111.112C187.704 109.747 184.334 108.296 180.323 106.76C178.19 105.992 175.715 104.968 172.899 103.688C170.168 102.323 167.566 100.616 165.091 98.5683C162.616 96.435 160.568 93.875 158.947 90.8883C157.326 87.8163 156.515 84.147 156.515 79.8803C156.515 74.7603 157.795 70.3657 160.355 66.6963C163 62.9417 166.542 60.083 170.979 58.1203C175.502 56.0723 180.536 55.0483 186.083 55.0483C191.8 55.0483 196.707 56.0297 200.803 57.9923C204.984 59.8697 208.44 62.3017 211.171 65.2883C213.987 68.1897 216.163 71.219 217.699 74.3763L203.363 82.3123C202.168 80.179 200.718 78.259 199.011 76.5523C197.39 74.7603 195.512 73.3523 193.379 72.3283C191.246 71.219 188.814 70.6643 186.083 70.6643C182.499 70.6643 179.811 71.5177 178.019 73.2243C176.227 74.8457 175.331 76.7657 175.331 78.9843C175.331 81.203 176.056 83.1657 177.507 84.8723C178.958 86.4937 181.176 88.0723 184.163 89.6083C187.15 91.059 190.904 92.5523 195.427 94.0883C198.328 95.1123 201.102 96.3923 203.747 97.9283C206.478 99.4643 208.91 101.342 211.043 103.56C213.262 105.694 214.968 108.254 216.163 111.24C217.443 114.142 218.083 117.512 218.083 121.352C218.083 125.704 217.23 129.587 215.523 133C213.816 136.414 211.47 139.315 208.483 141.704C205.496 144.008 202.126 145.758 198.371 146.952C194.702 148.232 190.819 148.872 186.723 148.872C181.262 148.872 176.142 147.848 171.363 145.8C166.67 143.667 162.574 140.808 159.075 137.224C155.576 133.64 152.846 129.758 150.883 125.576L163.939 116.36Z" fill="white"/>
<path d="M100.971 115.208L125.163 56.8403H146.411L100.971 151.688L55.5309 56.8403H76.6509L100.971 115.208Z" fill="white"/>
<defs>
<linearGradient id="paint0_linear_10_3" x1="-0.227004" y1="17.9148" x2="513.59" y2="511.221" gradientUnits="userSpaceOnUse">
<stop stop-color="#006EFF"/>
<stop offset="1" stop-color="#123E81"/>
</linearGradient>
</defs>
</svg>
