<svg width="193" height="193" viewBox="0 0 193 193" fill="none" xmlns="http://www.w3.org/2000/svg">
<path d="M0.358292 40.1071C0.358292 18.0316 18.2797 0.135796 40.3869 0.135796H152.33C174.437 0.135796 192.358 18.0316 192.358 40.1071V152.164C192.358 174.24 174.437 192.136 152.33 192.136H40.3869C18.2797 192.136 0.358292 174.24 0.358292 152.164V40.1071Z" fill="url(#paint0_linear_9_58)"/>
<path d="M154.832 154.585H192.358V162.085C192.358 178.653 178.927 192.085 162.358 192.085H154.832V154.585Z" fill="white" fill-opacity="0.2"/>
<path d="M154.832 117.085H192.358V154.585H154.832V117.085Z" fill="white" fill-opacity="0.4"/>
<path d="M117.306 154.585H154.832V192.085H117.306V154.585Z" fill="white" fill-opacity="0.4"/>
<path d="M117.306 117.085H154.832V154.585H117.306V117.085Z" fill="white" fill-opacity="0.6"/>
<path d="M79.7795 154.585H117.306V192.085H79.7795V154.585Z" fill="white" fill-opacity="0.6"/>
<path d="M154.832 79.5849H192.358V117.085H154.832V79.5849Z" fill="white" fill-opacity="0.6"/>
<defs>
<linearGradient id="paint0_linear_9_58" x1="0.138806" y1="6.80292" x2="192.82" y2="191.793" gradientUnits="userSpaceOnUse">
<stop stop-color="#006EFF"/>
<stop offset="1" stop-color="#123E81"/>
</linearGradient>
</defs>
</svg>
