<svg width="193" height="193" viewBox="0 0 193 193" fill="none" xmlns="http://www.w3.org/2000/svg">
<path fill-rule="evenodd" clip-rule="evenodd" d="M30.3798 0.135796C13.7994 0.135796 0.358292 13.5576 0.358292 30.1143V162.157C0.358292 178.714 13.7994 192.136 30.3798 192.136H162.137C178.718 192.136 192.159 178.714 192.159 162.157V30.1143C192.159 13.5576 178.718 0.135796 162.137 0.135796H30.3798ZM26.462 41.7826C34.9142 41.7826 41.7661 34.9138 41.7661 26.4406C41.7661 17.9675 34.9142 11.0987 26.462 11.0987C18.0098 11.0987 11.1579 17.9675 11.1579 26.4406C11.1579 34.9138 18.0098 41.7826 26.462 41.7826Z" fill="url(#paint0_linear_8_41)"/>
<path d="M161.75 161.45H192.358V162.134C192.358 178.702 178.927 192.134 162.358 192.134H161.75V161.45Z" fill="white" fill-opacity="0.1"/>
<path d="M131.142 161.45H161.75V192.134H131.142V161.45Z" fill="white" fill-opacity="0.2"/>
<path d="M131.142 130.766H161.75V161.45H131.142V130.766Z" fill="white" fill-opacity="0.3"/>
<path d="M161.75 100.082H192.358V130.766H161.75V100.082Z" fill="white" fill-opacity="0.3"/>
<path d="M100.534 161.45H131.142V192.134H100.534V161.45Z" fill="white" fill-opacity="0.3"/>
<path d="M100.534 135.766C100.534 133.005 102.772 130.766 105.534 130.766H131.142V161.45H100.534V135.766Z" fill="white" fill-opacity="0.4"/>
<path d="M161.75 74.3981C161.75 71.6367 163.989 69.3981 166.75 69.3981H192.358V100.082H161.75V74.3981Z" fill="white" fill-opacity="0.4"/>
<path d="M131.142 105.082C131.142 102.321 133.381 100.082 136.142 100.082H161.75V130.766H131.142V105.082Z" fill="white" fill-opacity="0.4"/>
<path d="M69.9256 166.45C69.9256 163.689 72.1642 161.45 74.9256 161.45H100.534V192.134H69.9256V166.45Z" fill="white" fill-opacity="0.4"/>
<path d="M161.75 130.766H192.358V161.45H161.75V130.766Z" fill="white" fill-opacity="0.2"/>
<path d="M123.392 30.192L129.44 15.6H134.752L123.392 39.312L112.032 15.6H117.312L123.392 30.192ZM139.134 30.48C139.603 31.312 140.115 32.0373 140.67 32.656C141.246 33.2747 141.875 33.7547 142.558 34.096C143.241 34.4373 143.977 34.608 144.766 34.608C145.683 34.608 146.43 34.3733 147.006 33.904C147.582 33.4347 147.87 32.7947 147.87 31.984C147.87 31.28 147.689 30.7147 147.326 30.288C146.985 29.8613 146.462 29.488 145.758 29.168C145.075 28.8267 144.233 28.464 143.23 28.08C142.697 27.888 142.078 27.632 141.374 27.312C140.691 26.9707 140.041 26.544 139.422 26.032C138.803 25.4987 138.291 24.8587 137.886 24.112C137.481 23.344 137.278 22.4267 137.278 21.36C137.278 20.08 137.598 18.9813 138.238 18.064C138.899 17.1253 139.785 16.4107 140.894 15.92C142.025 15.408 143.283 15.152 144.67 15.152C146.099 15.152 147.326 15.3973 148.35 15.888C149.395 16.3573 150.259 16.9653 150.942 17.712C151.646 18.4373 152.19 19.1947 152.574 19.984L148.99 21.968C148.691 21.4347 148.329 20.9547 147.902 20.528C147.497 20.08 147.027 19.728 146.494 19.472C145.961 19.1947 145.353 19.056 144.67 19.056C143.774 19.056 143.102 19.2693 142.654 19.696C142.206 20.1013 141.982 20.5813 141.982 21.136C141.982 21.6907 142.163 22.1813 142.526 22.608C142.889 23.0133 143.443 23.408 144.19 23.792C144.937 24.1547 145.875 24.528 147.006 24.912C147.731 25.168 148.425 25.488 149.086 25.872C149.769 26.256 150.377 26.7253 150.91 27.28C151.465 27.8133 151.891 28.4533 152.19 29.2C152.51 29.9253 152.67 30.768 152.67 31.728C152.67 32.816 152.457 33.7867 152.03 34.64C151.603 35.4933 151.017 36.2187 150.27 36.816C149.523 37.392 148.681 37.8293 147.742 38.128C146.825 38.448 145.854 38.608 144.83 38.608C143.465 38.608 142.185 38.352 140.99 37.84C139.817 37.3067 138.793 36.592 137.918 35.696C137.043 34.8 136.361 33.8293 135.87 32.784L139.134 30.48ZM160.081 26.8C160.081 28.272 160.411 29.5627 161.073 30.672C161.755 31.76 162.641 32.6027 163.729 33.2C164.817 33.776 166.001 34.064 167.281 34.064C168.347 34.064 169.297 33.9253 170.129 33.648C170.961 33.3707 171.707 32.9973 172.369 32.528C173.051 32.0587 173.638 31.5467 174.129 30.992V36.144C173.211 36.8693 172.209 37.4347 171.121 37.84C170.054 38.2453 168.699 38.448 167.057 38.448C165.35 38.448 163.761 38.1707 162.289 37.616C160.838 37.0613 159.569 36.2613 158.481 35.216C157.414 34.1707 156.582 32.944 155.985 31.536C155.409 30.1067 155.121 28.528 155.121 26.8C155.121 25.072 155.409 23.504 155.985 22.096C156.582 20.6667 157.414 19.4293 158.481 18.384C159.569 17.3387 160.838 16.5387 162.289 15.984C163.761 15.4293 165.35 15.152 167.057 15.152C168.699 15.152 170.054 15.3547 171.121 15.76C172.209 16.1653 173.211 16.7307 174.129 17.456V22.608C173.638 22.0533 173.051 21.5413 172.369 21.072C171.707 20.6027 170.961 20.2293 170.129 19.952C169.297 19.6747 168.347 19.536 167.281 19.536C166.001 19.536 164.817 19.8347 163.729 20.432C162.641 21.008 161.755 21.84 161.073 22.928C160.411 24.016 160.081 25.3067 160.081 26.8Z" fill="white"/>
<defs>
<linearGradient id="paint0_linear_8_41" x1="0.138959" y1="6.80292" x2="192.815" y2="191.658" gradientUnits="userSpaceOnUse">
<stop stop-color="#006EFF"/>
<stop offset="1" stop-color="#123E81"/>
</linearGradient>
</defs>
</svg>
